FILE "Anatomy.dummy" WAVE
  TRACK 01 AUDIO
    INDEX 01 00:00:00
  TRACK 02 AUDIO
    INDEX 01 02:59:32
  TRACK 03 AUDIO
    INDEX 01 06:53:18
  TRACK 04 AUDIO
    INDEX 01 11:09:10
  TRACK 05 AUDIO
    INDEX 01 15:35:10
  TRACK 06 AUDIO
    INDEX 01 19:38:47
  TRACK 07 AUDIO
    INDEX 01 24:58:61
  TRACK 08 AUDIO
    INDEX 01 29:05:63
  TRACK 09 AUDIO
    INDEX 01 32:34:34
  TRACK 10 AUDIO
    INDEX 01 38:55:70
  TRACK 11 AUDIO
    INDEX 01 40:06:35
  TRACK 12 AUDIO
    INDEX 01 43:35:72
  TRACK 13 AUDIO
    INDEX 01 48:04:59
  TRACK 14 AUDIO
    INDEX 01 49:35:03
  TRACK 15 AUDIO
    INDEX 01 55:31:06
  TRACK 16 AUDIO
    INDEX 01 58:17:56
